# xmcd
#
# Track frame offsets:
#	150
#	29881
#	52927
#	81583
#	114008
#	143417
#	171241
#	189008
#	214361
#	241001
#	263228
#	287594
#	314944
#
# Disc length: 4694 seconds
#
# Revision: 4
# Processed by: cddbd v1.5.2PL0 Copyright (c) Steve Scherf et al.
# Submitted via: audiograbber 1.83.01
#
DISCID=b912540d
DTITLE=ATB - The DJ'6 - In The Mix [CD 1)
DYEAR=2011
DGENRE=Trance
TTITLE0=ATB - Twisted Love
TTITLE1=George Acosta (feat. Fisher) - Love Rain Down
TTITLE2=Shogun (feat. Susie) - Come With Me
TTITLE3=Dash Berlin (with Cerf, Mitiska and Jaren) - Man On The Run (Nic Chagall 
TTITLE3=Remix)|
TTITLE4=Filo and Peri (feat. Audrey Gallagher) - This Night (Max Graham Mix)
TTITLE5=Amurai (feat. Rough Duchess) - Infinity
TTITLE6=AMEX - Closer
TTITLE7=Andy Duguid (feat. Leah) - Miracle Moments
TTITLE8=Juli Thompson - Shine (JPL and George Hales Remix)
TTITLE9=Ruben de Ronde - Forever In Our Hearts (Danny Chen Remix)
TTITLE10=Skytech - Rocket Science
TTITLE11=Shipstad and Warren - I'm Never Alone
TTITLE12=Juventa - Only Us
EXTD=
EXTT0=
EXTT1=
EXTT2=
EXTT3=
EXTT4=
EXTT5=
EXTT6=
EXTT7=
EXTT8=
EXTT9=
EXTT10=
EXTT11=
EXTT12=
PLAYORDER=
